<?xml version="1.0" standalone="no"?>
<!DOCTYPE svg PUBLIC "-//W3C//DTD SVG 20010904//EN"
 "http://www.w3.org/TR/2001/REC-SVG-20010904/DTD/svg10.dtd">
<svg version="1.0" xmlns="http://www.w3.org/2000/svg"
 width="300.000000pt" height="300.000000pt" viewBox="0 0 300.000000 300.000000"
 preserveAspectRatio="xMidYMid meet">
<metadata>
Created by potrace 1.10, written by Peter Selinger 2001-2011
</metadata>
<g transform="translate(0.000000,300.000000) scale(0.100000,-0.100000)"
fill="#000000" stroke="none">
<path d="M943 2974 c-17 -9 -39 -24 -48 -34 -22 -25 -44 -87 -45 -127 0 -33 0
-33 50 -33 l50 0 0 44 c0 64 21 76 136 76 107 0 128 -13 129 -81 l0 -39 49 0
49 0 -6 57 c-6 60 -25 93 -71 127 -23 18 -44 21 -144 24 -92 2 -124 -1 -149
-14z m257 -21 c40 -17 71 -58 77 -102 5 -37 3 -41 -16 -41 -14 0 -21 6 -21 20
0 32 -21 67 -47 81 -34 18 -193 18 -226 0 -27 -14 -47 -50 -47 -81 0 -13 -7
-20 -19 -20 -17 0 -19 6 -16 40 7 70 47 106 125 112 68 6 165 1 190 -9z"/>
<path d="M463 2783 c70 -2 184 -2 255 0 70 1 12 3 -128 3 -140 0 -198 -2 -127
-3z"/>
<path d="M1018 2783 c34 -2 90 -2 125 0 34 2 6 3 -63 3 -69 0 -97 -1 -62 -3z"/>
<path d="M1488 2780 l174 -5 24 -28 c28 -32 31 -72 8 -107 l-16 -25 21 24 c25
28 27 63 4 102 -9 15 -14 32 -10 36 4 4 40 2 80 -5 54 -9 77 -18 93 -36 23
-26 24 -66 3 -92 -37 -45 -28 -44 -799 -45 -730 0 -731 0 -758 21 -15 12 -33
31 -40 43 -13 21 -13 21 -6 -3 7 -28 24 -53 32 -46 2 3 11 -1 19 -9 8 -8 28
-15 45 -15 l30 0 -34 -42 c-40 -51 -84 -114 -122 -180 l-27 -48 153 0 153 0
19 53 c10 28 36 89 57 135 38 79 41 82 67 75 15 -4 36 -7 47 -7 111 3 201 5
206 5 4 -1 1 -28 -6 -61 l-13 -60 183 0 182 0 6 -52 c3 -29 2 -56 -2 -61 -4
-4 -88 -6 -186 -5 l-179 3 1 50 1 50 -10 -55 -10 -55 -149 2 c-82 1 -161 -2
-176 -7 -16 -5 217 -9 526 -9 305 -1 552 1 549 4 -2 3 -81 6 -174 8 l-169 3
-17 104 c-26 163 -41 145 125 144 l142 -2 42 -88 c23 -49 48 -108 55 -131 l12
-43 153 0 c84 0 153 2 153 5 0 17 -113 188 -157 236 l-24 26 43 6 c55 7 88 43
88 96 0 49 -35 88 -72 82 -5 0 -8 3 -8 9 0 6 -89 9 -252 8 l-253 -2 173 -6z
m-323 -209 l60 -1 12 -37 c20 -64 18 -64 -156 -61 l-156 3 -1 37 c-2 60 6 64
115 61 36 -1 93 -2 126 -2z m-565 -6 c0 -2 -11 -24 -24 -47 l-24 -43 -106 -3
c-58 -1 -106 1 -106 6 0 8 23 41 55 79 10 12 205 19 205 8z m1187 -32 c18 -21
33 -41 33 -45 0 -4 6 -13 13 -20 15 -16 77 -112 77 -120 0 -4 -37 -6 -82 -6
-62 0 -88 4 -101 16 -16 15 -17 15 -11 -1 5 -14 0 -17 -25 -17 -29 0 -34 5
-57 55 -29 67 -29 65 -1 66 22 1 22 1 -2 8 -19 5 -71 76 -71 96 0 3 43 5 97 5
l96 0 34 -37z m-1237 -78 c0 -2 -11 -29 -24 -60 l-25 -55 -120 0 c-76 0 -121
4 -121 10 0 6 11 28 25 50 14 22 25 44 25 50 0 6 45 10 120 10 66 0 120 -2
120 -5z"/>
<path d="M1670 2430 c6 -11 13 -20 16 -20 2 0 0 9 -6 20 -6 11 -13 20 -16 20
-2 0 0 -9 6 -20z"/>
<path d="M271 2733 c-15 -34 -10 -37 12 -8 9 13 13 26 8 29 -4 3 -13 -6 -20
-21z"/>
<path d="M613 2463 c15 -2 37 -2 50 0 12 2 0 4 -28 4 -27 0 -38 -2 -22 -4z"/>
<path d="M1308 2463 c12 -2 30 -2 40 0 9 3 -1 5 -23 4 -22 0 -30 -2 -17 -4z"/>
<path d="M140 2318 c-2 -5 -3 -11 -4 -15 -1 -5 -5 -15 -10 -23 -7 -11 -4 -11
9 2 9 9 15 22 12 30 -3 7 -6 10 -7 6z"/>
<path d="M160 2311 c0 -5 9 -7 20 -4 11 3 20 7 20 9 0 2 -9 4 -20 4 -11 0 -20
-4 -20 -9z"/>
<path d="M1960 2310 c0 -5 10 -10 23 -10 27 0 34 -11 76 -125 65 -176 67 -191
27 -200 -11 -3 -297 -4 -634 -3 l-612 3 0 -67 c0 -36 -2 -72 -5 -80 -4 -11 41
-13 245 -13 l250 0 -6 71 -6 71 210 -1 c202 -1 211 -2 216 -21 17 -67 37 -348
37 -520 0 -226 -23 -486 -47 -550 -6 -15 9 -16 173 -10 164 7 181 6 197 -10
20 -20 21 -15 -27 -145 -58 -160 -63 -170 -91 -170 -14 0 -28 -4 -31 -10 -4
-6 -60 -10 -136 -10 l-129 0 0 -234 c0 -231 0 -235 -22 -250 -22 -16 -22 -16
-1 -16 29 0 33 17 33 126 l0 94 28 0 c19 0 38 11 59 32 33 36 106 140 143 206
18 32 30 42 49 42 27 0 56 14 57 27 0 4 8 26 18 48 9 21 18 46 20 55 2 8 9 29
15 45 31 74 47 121 46 139 0 15 -20 35 -42 42 -2 0 3 23 11 50 8 27 17 66 20
87 l7 37 112 0 c165 0 157 -10 157 204 0 215 6 206 -137 206 l-100 0 -6 108
c-3 59 -9 125 -12 147 -8 54 -44 230 -51 248 -3 9 3 16 15 20 30 7 37 35 17
68 -9 16 -15 29 -12 29 3 0 0 14 -5 30 -6 17 -15 30 -21 30 -5 0 -6 5 -3 10 3
6 3 16 -2 23 -4 6 -8 19 -10 27 -1 9 -9 32 -18 53 -8 20 -16 40 -16 44 0 5 -5
14 -11 21 -12 14 -68 16 -68 2z m-656 -382 c3 -13 6 -40 6 -60 l0 -38 -231 0
-231 0 6 43 c3 23 5 50 5 60 1 16 18 17 220 17 218 0 219 0 225 -22z m770 14
c11 -19 52 -284 60 -392 4 -47 12 -97 18 -111 11 -24 15 -26 41 -16 22 7 35 7
48 -2 11 -6 19 -7 19 -2 0 11 97 7 108 -3 13 -14 13 -311 -1 -329 -9 -12 -32
-16 -92 -18 -119 -3 -123 -2 -128 24 -4 20 -4 20 -6 -3 0 -14 -9 -33 -20 -42
-10 -8 -21 -33 -25 -54 -4 -22 -12 -56 -17 -76 l-10 -38 -89 0 c-79 0 -90 2
-91 18 0 14 -2 13 -9 -4 -6 -16 -16 -20 -42 -18 -18 1 -43 3 -55 3 -21 1 -22
4 -17 59 2 31 9 84 14 117 12 76 22 237 20 335 -4 238 -10 330 -26 408 -4 20
0 22 38 24 l43 1 -42 4 c-36 4 -43 8 -43 26 0 12 -3 39 -6 60 l-7 37 156 0
c86 0 158 -4 161 -8z m-174 -1467 c0 -16 -88 -149 -124 -188 -47 -51 -60 -35
-63 78 -1 61 2 104 9 112 15 19 178 16 178 -2z"/>
<path d="M1876 1805 c10 -8 24 -14 29 -14 6 0 1 6 -9 14 -11 8 -24 15 -30 15
-5 0 -1 -7 10 -15z"/>
<path d="M1922 1740 c0 -14 2 -19 5 -12 2 6 2 18 0 25 -3 6 -5 1 -5 -13z"/>
<path d="M1932 1665 c0 -16 2 -22 5 -12 2 9 2 23 0 30 -3 6 -5 -1 -5 -18z"/>
<path d="M1943 1555 c0 -33 2 -45 4 -27 2 18 2 45 0 60 -2 15 -4 0 -4 -33z"/>
<path d="M1943 1280 c0 -36 2 -50 4 -32 2 17 2 47 0 65 -2 17 -4 3 -4 -33z"/>
<path d="M2163 1265 c0 -33 2 -45 4 -27 2 18 2 45 0 60 -2 15 -4 0 -4 -33z"/>
<path d="M2152 1175 c0 -16 2 -22 5 -12 2 9 2 23 0 30 -3 6 -5 -1 -5 -18z"/>
<path d="M1931 1164 c0 -11 3 -14 6 -6 3 7 2 16 -1 19 -3 4 -6 -2 -5 -13z"/>
<path d="M1922 1085 c0 -16 2 -22 5 -12 2 9 2 23 0 30 -3 6 -5 -1 -5 -18z"/>
<path d="M1912 1030 c0 -14 2 -19 5 -12 2 6 2 18 0 25 -3 6 -5 1 -5 -13z"/>
<path d="M1901 974 c0 -11 3 -14 6 -6 3 7 2 16 -1 19 -3 4 -6 -2 -5 -13z"/>
<path d="M1821 2273 c11 -34 19 -42 19 -20 0 7 -7 22 -15 33 -13 17 -14 16 -4
-13z"/>
<path d="M106 2244 c-4 -9 -4 -19 -1 -22 2 -3 7 3 11 12 4 9 4 19 1 22 -2 3
-7 -3 -11 -12z"/>
<path d="M1843 2220 c13 -44 81 -220 84 -217 4 5 -64 195 -78 216 -8 13 -10
13 -6 1z"/>
<path d="M99 2203 c-1 -2 -2 -6 -3 -10 -1 -5 -10 -23 -20 -41 -9 -19 -16 -35
-14 -37 2 -2 35 0 73 4 l70 8 -57 2 c-32 0 -58 3 -58 6 0 2 5 16 12 30 l12 26
202 -1 c191 -1 203 -3 209 -21 10 -32 -3 -39 -76 -39 -42 0 -69 -4 -69 -11 0
-13 116 -10 143 3 20 10 23 51 4 66 -11 9 -424 23 -428 15z"/>
<path d="M212 2124 c9 -8 157 -10 151 -1 -2 4 -38 7 -80 7 -42 0 -74 -3 -71
-6z"/>
<path d="M20 2013 c1 -14 27 -43 39 -43 7 0 10 -8 7 -17 -5 -19 -28 -128 -32
-153 -1 -8 -7 -46 -13 -85 -14 -90 -15 -223 -1 -209 5 5 10 43 11 84 1 41 5
82 9 90 5 8 10 42 12 75 l4 60 105 6 104 5 -97 2 c-109 2 -106 0 -87 77 l11
44 97 3 c53 2 122 2 154 0 l57 -3 0 -34 c0 -46 -15 -82 -37 -88 -14 -4 -12 -5
6 -6 19 -1 22 -5 17 -25 -7 -28 -18 -184 -20 -278 0 -38 -5 -68 -11 -68 -7 0
-7 -3 0 -8 6 -4 10 -52 11 -112 0 -101 10 -252 20 -315 3 -16 7 -54 9 -82 l4
-53 -42 -1 c-37 -1 -130 -1 -233 1 -27 0 -32 5 -42 38 -7 20 -16 64 -22 97 -6
33 -12 71 -15 85 -3 14 -8 59 -11 101 -2 41 -9 88 -13 105 -7 23 -9 14 -10
-46 -1 -92 12 -188 45 -330 10 -44 11 -66 4 -68 -20 -7 -40 -34 -33 -45 4 -6
9 -2 14 11 5 12 14 22 21 22 7 1 93 0 191 0 173 -1 178 0 172 19 -38 120 -56
617 -31 861 9 85 18 164 20 175 3 11 5 27 5 36 1 13 28 15 202 17 111 1 204 4
207 7 3 3 -84 5 -194 6 -425 2 -569 5 -581 12 -7 5 -13 15 -13 23 0 8 -4 14
-10 14 -5 0 -10 -3 -10 -7z"/>
<path d="M2774 1911 c-12 -5 -31 -22 -44 -38 -23 -30 -23 -22 -4 -193 11 -105
27 -130 84 -130 57 0 73 25 84 130 20 179 21 164 -10 199 -31 33 -76 46 -110
32z m85 -42 c22 -21 23 -26 16 -118 -4 -53 -10 -100 -13 -106 -4 -5 -5 -18 -4
-27 2 -9 -8 -24 -22 -34 -24 -15 -28 -15 -50 -1 -20 13 -25 29 -35 104 -6 49
-11 105 -11 124 0 69 70 103 119 58z"/>
<path d="M288 1823 c12 -2 30 -2 40 0 9 3 -1 5 -23 4 -22 0 -30 -2 -17 -4z"/>
<path d="M508 1823 c45 -2 119 -2 165 0 45 1 8 3 -83 3 -91 0 -128 -2 -82 -3z"/>
<path d="M1388 1823 c23 -2 59 -2 80 0 20 2 1 4 -43 4 -44 0 -61 -2 -37 -4z"/>
<path d="M1518 1823 c6 -2 18 -2 25 0 6 3 1 5 -13 5 -14 0 -19 -2 -12 -5z"/>
<path d="M1321 1675 c-2 -71 -3 -134 -2 -139 1 -5 2 -97 1 -205 0 -238 -9
-433 -19 -444 -9 -9 -438 -13 -448 -4 -4 5 -8 208 -9 453 -2 246 -5 449 -8
452 -8 8 -7 -634 1 -801 l6 -137 238 0 237 0 7 133 c9 177 11 587 4 717 l-5
105 -3 -130z"/>
<path d="M2847 1528 c-4 -10 -9 -25 -12 -34 -8 -24 -48 -13 -56 16 -6 23 -7
22 -8 -7 -1 -32 0 -33 39 -33 44 0 54 12 48 52 -4 20 -5 20 -11 6z"/>
<path d="M2771 1444 c0 -11 3 -14 6 -6 3 7 2 16 -1 19 -3 4 -6 -2 -5 -13z"/>
<path d="M2848 1435 c-3 -14 -1 -28 3 -31 5 -3 9 9 9 25 0 38 -6 40 -12 6z"/>
<path d="M2595 1412 c-11 -3 -23 -9 -27 -16 -4 -6 -8 -70 -8 -143 0 -124 1
-133 21 -143 16 -9 26 -8 45 4 23 16 24 20 23 144 0 108 -3 131 -17 143 -9 8
-26 13 -37 11z m30 -39 c8 -21 7 -206 -1 -228 -8 -20 -40 -19 -48 1 -11 30 -7
219 6 232 17 17 35 15 43 -5z"/>
<path d="M2771 1404 c0 -11 3 -14 6 -6 3 7 2 16 -1 19 -3 4 -6 -2 -5 -13z"/>
<path d="M2425 1360 c-4 -6 17 -10 55 -10 38 0 59 4 55 10 -3 6 -28 10 -55 10
-27 0 -52 -4 -55 -10z"/>
<path d="M2664 1359 c-3 -5 22 -9 55 -9 34 0 61 4 61 9 0 5 -25 9 -55 9 -31 0
-58 -4 -61 -9z"/>
<path d="M2830 1358 c13 -7 27 -24 31 -38 l7 -25 1 26 c1 25 4 26 47 24 26 -2
53 -10 65 -21 19 -17 20 -17 13 2 -14 37 -24 41 -107 43 -72 1 -79 0 -57 -11z"/>
<path d="M2861 1204 c0 -11 3 -14 6 -6 3 7 2 16 -1 19 -3 4 -6 -2 -5 -13z"/>
<path d="M2972 1190 c-7 -11 -22 -20 -35 -20 -13 0 -28 -5 -34 -11 -6 -6 -39
-9 -82 -7 l-71 3 0 -156 c0 -178 -4 -169 85 -169 43 0 56 4 65 19 5 11 10 84
10 166 l0 145 24 -4 c30 -5 59 15 55 37 -4 16 -5 15 -17 -3z m-83 -189 c2
-157 5 -151 -81 -142 -35 3 -38 6 -39 35 0 17 -1 52 -2 79 -1 26 0 47 3 47 3
0 3 27 2 60 l-4 60 60 0 59 0 2 -139z"/>
<path d="M2830 1030 c0 -6 7 -10 15 -10 8 0 15 2 15 4 0 2 -7 6 -15 10 -8 3
-15 1 -15 -4z"/>
<path d="M2447 1163 c18 -2 50 -2 70 0 21 2 7 4 -32 4 -38 0 -55 -2 -38 -4z"/>
<path d="M2665 1160 c4 -6 20 -9 37 -6 46 7 46 16 -1 16 -27 0 -40 -4 -36 -10z"/>
<path d="M495 869 c-33 -3 30 -6 140 -6 197 1 202 4 15 9 -52 2 -122 0 -155
-3z"/>
<path d="M1332 864 c7 -6 380 -6 386 1 3 3 -84 5 -193 5 -109 0 -196 -2 -193
-6z"/>
<path d="M1916 814 c-8 -20 -8 -24 2 -24 4 0 8 9 9 20 2 24 -3 26 -11 4z"/>
<path d="M40 771 c0 -18 12 -41 22 -41 7 0 6 5 -1 13 -6 8 -8 16 -5 19 3 3 1
9 -5 13 -6 3 -11 2 -11 -4z"/>
<path d="M1867 678 c-21 -55 -36 -102 -34 -104 2 -2 21 41 42 96 21 56 36 103
33 105 -2 2 -21 -41 -41 -97z"/>
<path d="M66 703 c2 -7 7 -21 11 -30 7 -20 10 -30 12 -40 2 -12 423 -3 438 9
17 13 17 57 1 63 -7 3 -115 6 -239 7 -178 2 -226 0 -223 -9z m460 -18 c4 -8 1
-22 -6 -30 -11 -13 -46 -15 -219 -15 l-206 1 -1 30 -1 29 214 0 c181 0 215 -2
219 -15z"/>
<path d="M105 589 c4 -13 14 -32 23 -41 8 -10 11 -18 6 -18 -5 0 -2 -5 6 -10
8 -5 26 -9 40 -9 21 1 21 2 5 6 -28 7 -65 43 -65 64 0 10 -5 21 -11 25 -8 4
-9 -1 -4 -17z"/>
<path d="M1816 544 c-5 -14 -4 -15 9 -4 17 14 19 20 6 20 -5 0 -12 -7 -15 -16z"/>
<path d="M210 505 c0 -10 67 -114 118 -183 58 -77 76 -92 116 -92 l25 0 3
-107 c2 -78 7 -108 16 -111 11 -3 12 0 3 15 -5 11 -13 124 -17 251 l-7 232
-129 0 c-70 0 -128 -2 -128 -5z m232 -68 c-2 -29 1 -47 8 -47 6 0 9 -4 6 -9
-3 -4 -6 -34 -7 -65 -2 -46 -5 -56 -20 -56 -18 0 -27 7 -66 53 -21 25 -80 115
-101 154 -11 21 -11 21 86 19 l97 -1 -3 -48z"/>
<path d="M355 400 c-16 -7 -17 -9 -3 -9 9 -1 20 4 23 9 7 11 7 11 -20 0z"/>
<path d="M482 505 c2 -3 92 -6 199 -8 l194 -2 9 -53 9 -52 100 0 c120 0 120
13 -1 20 -83 5 -86 6 -93 32 -4 17 -3 31 4 36 7 5 91 8 187 8 l175 -1 -3 -34
c-1 -19 -4 -37 -7 -39 -2 -2 -29 -4 -59 -3 -78 1 -70 -17 9 -21 l65 -3 6 45
c3 25 6 49 7 53 1 4 89 10 196 12 377 8 196 15 -399 15 -332 0 -601 -2 -598
-5z"/>
<path d="M690 399 c0 -5 5 -7 10 -4 6 3 10 8 10 11 0 2 -4 4 -10 4 -5 0 -10
-5 -10 -11z"/>
<path d="M1460 400 c0 -5 5 -10 11 -10 5 0 7 5 4 10 -3 6 -8 10 -11 10 -2 0
-4 -4 -4 -10z"/>
<path d="M1108 393 c7 -3 16 -2 19 1 4 3 -2 6 -13 5 -11 0 -14 -3 -6 -6z"/>
<path d="M905 324 c3 -26 9 -53 12 -61 5 -13 -12 -14 -110 -11 -136 4 -127 13
-127 -128 0 -84 -2 -92 -22 -102 -23 -11 -23 -11 -2 -11 30 -1 34 15 34 124
l0 94 113 3 c61 2 237 2 390 0 l277 -3 0 -93 c0 -108 4 -126 32 -126 20 0 20
0 -1 17 -18 16 -21 30 -23 123 l-3 105 -105 -3 c-57 -2 -108 -6 -113 -9 -6 -4
-7 22 -4 63 l6 69 -12 -55 c-14 -64 -20 -66 -157 -65 -172 3 -157 -3 -170 60
-14 67 -25 73 -15 9z"/>
</g>
</svg>
