 <svg  version="1.0" xmlns="http://www.w3.org/2000/svg"  width="300.000000pt" height="300.000000pt" viewBox="0 0 300.000000 300.000000"  preserveAspectRatio="xMidYMid meet">  <g transform="translate(0.000000,300.000000) scale(0.050000,-0.050000)" fill="#fffaf1" stroke="none"> <path d="M1886 5949 c-113 -58 -183 -180 -185 -324 -1 -65 -1 -65 99 -65 l100 0 0 87 c0 133 35 153 263 153 225 0 268 -26 262 -161 l-3 -79 102 0 102 0 -12 114 c-12 119 -49 186 -142 255 -75 56 -486 70 -586 20z"/> <path d="M627 5546 c-139 -69 -132 -346 10 -346 25 0 43 77 21 91 -11 7 -10 27 2 49 14 26 13 40 -5 47 -15 6 -11 10 9 11 21 1 31 13 24 29 -14 37 30 46 253 52 200 5 218 5 439 3 181 -1 187 0 217 31 20 22 19 27 -1 28 -14 1 -8 10 14 19 24 10 -155 17 -440 17 -396 0 -491 -5 -543 -31z"/> <path d="M1995 5567 c14 -6 25 -22 25 -36 0 -35 71 -52 98 -25 16 16 22 16 22 0 0 -14 25 -19 65 -13 93 13 119 24 106 45 -6 10 0 23 14 29 14 5 -60 10 -165 10 -104 0 -179 -5 -165 -10z"/> <path d="M2716 5566 c20 -7 20 -16 2 -38 -28 -34 -42 -32 268 -37 158 -2 247 4 269 20 66 48 165 -44 165 -152 0 -46 36 -52 53 -8 19 50 85 76 120 46 37 -30 25 -172 -16 -202 -18 -12 0 -15 53 -7 207 28 234 298 37 373 -50 19 -999 25 -951 5z"/> <path d="M5894 5407 c-7 -7 -3 -30 9 -52 19 -37 16 -40 -31 -31 -44 9 -52 3 -52 -37 0 -26 9 -47 19 -47 11 0 15 14 8 30 -7 19 1 30 21 30 29 0 41 -24 34 -66 -2 -10 5 -12 14 -7 9 6 14 49 10 96 -7 90 -12 104 -32 84z"/> <path d="M744 5125 c-71 -74 -324 -450 -324 -479 0 -9 783 -14 1740 -11 957 3 1740 9 1740 14 0 19 -127 224 -213 345 -164 228 3 206 -1532 206 l-1340 0 -71 -75z m1068 -50 c-7 -47 -17 -126 -23 -175 -11 -102 -38 -211 -50 -209 -5 1 -40 13 -79 27 -117 44 -395 35 -508 -15 l-97 -43 12 61 c17 82 117 308 166 374 l39 53 44 -44 c48 -48 328 -66 354 -24 7 12 21 15 31 9 11 -6 19 -3 19 7 0 14 66 57 97 63 4 0 2 -37 -5 -84z m818 5 c25 -41 337 -24 375 20 19 22 43 40 54 40 24 0 170 -299 198 -405 18 -67 2 -102 -25 -58 -43 69 -454 97 -575 39 -64 -31 -75 -31 -85 -5 -9 24 -72 411 -72 443 0 13 117 -54 130 -74z m804 -72 c-6 -7 15 -35 47 -62 67 -56 75 -96 25 -115 -19 -7 -29 -7 -21 1 8 7 -15 39 -49 69 -59 51 -59 119 0 119 6 0 5 -6 -2 -12z m-2374 -107 c0 -73 -293 -151 -316 -83 -4 12 -16 17 -26 11 -30 -19 -20 26 13 60 36 35 329 46 329 12z m1408 7 c26 -10 27 -20 7 -55 -13 -24 -22 -48 -21 -54 2 -6 -24 -13 -57 -15 -33 -3 -66 -6 -73 -7 -243 -34 -588 53 -484 122 32 22 575 29 628 9z m886 -84 c28 -46 45 -84 39 -84 -23 0 -150 149 -140 165 19 30 51 5 101 -81z"/> <path d="M1340 4980 c0 -7 -25 -22 -55 -34 -45 -18 -10 -22 184 -24 226 -2 237 0 194 30 -45 31 -323 56 -323 28z"/> <path d="M2742 4984 c-193 -19 -125 -64 97 -64 121 0 221 5 221 10 0 37 -178 67 -318 54z"/> <path d="M5498 5170 c-9 -46 -3 -111 11 -115 25 -7 31 63 7 77 -13 8 -10 19 7 30 20 13 20 17 2 18 -14 0 -26 -4 -27 -10z"/> <path d="M5951 5141 c-8 -12 -24 -16 -37 -8 -13 7 -17 6 -9 -3 8 -9 6 -26 -4 -39 -12 -14 -12 -34 0 -52 14 -23 18 -19 19 17 0 30 8 41 23 32 14 -8 18 -5 10 7 -7 12 -2 26 12 31 14 4 19 15 12 23 -7 7 -19 4 -26 -8z"/> <path d="M5844 5032 c8 -9 5 -35 -6 -56 -18 -34 -16 -37 15 -19 40 20 50 23 97 23 17 0 30 14 30 31 0 29 -3 29 -32 -1 -30 -29 -36 -29 -75 4 -24 19 -37 28 -29 18z"/> <path d="M5903 4858 c-19 -51 -6 -158 20 -158 10 0 12 24 4 53 -11 44 -7 51 20 41 18 -7 33 -5 33 4 0 10 -14 23 -32 30 -18 7 -27 25 -21 42 7 17 7 30 2 30 -6 0 -17 -19 -26 -42z"/> <path d="M260 4591 c-11 -28 -29 -73 -40 -101 -22 -58 -3 -65 43 -15 17 19 51 51 75 71 53 42 46 81 -15 90 -31 5 -49 -8 -63 -45z"/> <path d="M3907 4610 c-6 -16 15 -82 48 -145 32 -63 71 -146 86 -185 15 -38 58 -122 96 -186 38 -63 62 -122 54 -130 -8 -8 -932 -13 -2054 -12 -1122 2 -2031 -3 -2020 -10 14 -9 12 -58 -8 -153 -16 -76 -39 -184 -50 -239 -34 -159 -50 -619 -22 -602 13 8 18 23 12 33 -6 11 0 19 13 19 14 0 19 6 12 13 -7 6 0 37 16 67 16 30 23 61 16 67 -7 7 3 30 22 51 19 21 43 97 54 174 10 74 23 139 27 144 5 4 0 29 -9 55 -24 62 41 75 317 66 231 -8 242 -14 185 -94 -26 -37 -35 -65 -22 -73 13 -8 11 -31 -7 -66 -17 -36 -21 -78 -11 -124 16 -72 7 -108 -22 -90 -9 6 -23 1 -30 -10 -7 -12 -1 -19 14 -15 19 4 26 -29 26 -135 0 -77 7 -150 14 -162 8 -12 9 -28 2 -35 -6 -7 -15 -134 -18 -284 -4 -149 -13 -281 -20 -293 -9 -13 -5 -17 9 -8 15 10 24 -7 25 -52 2 -83 -1 -279 -6 -307 -1 -13 -59 -20 -149 -17 -98 2 -147 -4 -148 -19 0 -13 -9 -7 -21 12 -11 20 -29 31 -39 24 -11 -6 -19 3 -19 20 0 17 -9 31 -19 31 -11 0 -15 14 -8 30 6 17 4 30 -6 30 -9 0 -19 36 -22 81 -2 44 -13 97 -25 118 -11 21 -20 70 -20 110 0 39 -10 71 -21 71 -13 0 -16 17 -9 40 8 26 4 40 -14 40 -19 1 -18 6 4 20 20 13 22 19 5 20 -14 0 -25 14 -25 31 0 18 -14 45 -30 62 -17 17 -25 38 -19 49 6 10 1 18 -11 18 -12 0 -17 9 -10 20 7 11 3 20 -9 20 -54 0 -14 -470 71 -838 23 -104 24 -132 4 -145 -15 -9 894 -15 2018 -12 1124 2 2049 -1 2055 -7 6 -6 -43 -119 -109 -250 -66 -131 -120 -250 -120 -264 0 -15 -9 -21 -20 -14 -11 7 -21 -6 -22 -29 -2 -22 -5 -50 -8 -61 -3 -11 -6 -29 -7 -40 -2 -13 -598 -20 -1743 -20 -957 0 -1740 -4 -1740 -10 0 -16 124 -215 207 -330 131 -183 173 -220 248 -220 l68 0 -5 -203 c-6 -227 10 -258 122 -241 58 8 60 11 30 44 -20 22 -36 86 -42 163 -14 182 -23 211 -68 223 -38 10 -40 27 -40 283 l0 274 80 -45 c85 -48 98 -78 50 -118 -16 -13 -25 -32 -19 -41 14 -24 605 -22 619 2 7 10 3 19 -9 19 -43 0 -21 93 29 120 64 35 60 42 99 -187 39 -229 40 -227 -73 -186 -47 17 -121 36 -163 43 -45 7 -97 34 -124 63 l-47 50 -14 -123 c-10 -90 -26 -135 -59 -167 -47 -46 -77 -173 -41 -173 12 0 9 -9 -8 -20 -18 -12 -21 -20 -6 -20 25 0 6 -89 -35 -165 -17 -31 -9 -35 59 -35 97 0 102 12 102 252 l0 188 780 0 780 0 0 -195 c1 -202 9 -238 60 -245 56 -9 127 0 114 13 -8 7 -2 27 11 44 18 21 18 26 1 17 -37 -23 -52 21 -59 174 -5 125 -12 146 -57 179 -41 29 -50 54 -51 130 -2 83 -34 212 -38 147 -3 -55 -98 -124 -170 -124 -38 0 -107 -15 -151 -33 -101 -40 -98 -43 -76 103 9 66 23 154 29 195 15 100 127 117 127 19 0 -16 10 -20 25 -12 14 8 9 -3 -10 -25 -57 -65 -49 -67 268 -62 292 5 393 28 278 65 -59 18 -52 33 44 94 l85 55 6 -285 c3 -184 -2 -286 -16 -291 -11 -3 -33 -19 -48 -34 -15 -15 -35 -21 -44 -13 -9 8 -5 -2 10 -21 17 -22 20 -44 9 -60 -10 -14 -17 -54 -15 -90 3 -36 -3 -65 -12 -65 -9 0 -11 -19 -5 -42 6 -25 -1 -49 -17 -60 -21 -13 -15 -18 22 -20 134 -7 139 3 140 247 l0 195 56 0 c77 0 444 449 444 544 0 9 30 16 68 16 37 0 76 11 86 25 19 25 85 192 95 240 3 14 16 52 30 85 115 279 116 326 6 362 -3 0 8 45 23 100 15 54 34 132 41 173 l13 75 236 0 c318 0 302 -21 302 413 0 423 11 407 -274 407 l-200 0 -12 235 c-10 200 -86 670 -125 769 -7 20 3 35 30 41 56 15 72 67 40 131 -14 30 -29 70 -32 90 -4 19 -22 69 -40 110 -18 40 -36 88 -39 105 -4 17 -22 66 -41 110 -19 43 -35 84 -36 89 -9 62 -142 86 -164 30z m-2927 -786 c0 -8 47 -12 105 -9 102 5 179 4 305 -2 33 -2 107 17 165 41 126 52 128 50 116 -148 -15 -238 -13 -1509 2 -1741 14 -218 9 -229 -79 -181 -44 24 -396 56 -383 34 4 -6 -41 -7 -101 -2 -85 7 -122 0 -177 -34 -85 -53 -85 -53 -125 238 -58 415 -57 1285 2 1650 26 161 34 201 43 215 11 17 127 -38 127 -61z m1790 26 c59 -27 128 -38 260 -39 99 0 185 -8 192 -17 6 -8 64 12 128 46 63 33 120 57 125 52 75 -76 105 -1510 39 -1910 -40 -247 -35 -239 -129 -193 -101 49 -587 48 -662 -2 -77 -50 -82 -17 -61 443 19 408 9 1410 -15 1535 -11 58 8 142 30 130 7 -4 49 -24 93 -45z m1265 -124 c18 -28 34 -74 36 -103 2 -29 10 -79 19 -110 11 -41 7 -62 -12 -75 -19 -12 -20 -17 -4 -18 28 0 43 -75 53 -260 9 -172 54 -275 132 -303 l61 -21 -2 -203 c-4 -335 -33 -455 -118 -483 -55 -18 -82 -47 -126 -132 -58 -110 -106 -147 -154 -118 -26 16 -24 79 12 390 17 152 20 1047 3 1037 -8 -5 -16 7 -17 27 -8 129 -18 171 -59 244 -25 45 -51 77 -56 72 -19 -19 -80 54 -70 82 6 15 38 28 70 28 41 0 56 -8 47 -25 -6 -14 -1 -11 12 6 33 45 133 25 173 -35z m-3535 11 c0 -12 -15 -16 -33 -9 -17 7 -46 1 -63 -13 -26 -21 -29 -20 -15 3 13 22 9 26 -17 16 -19 -8 -29 -6 -24 3 15 25 152 25 152 0z m2109 -119 c6 -6 -3 -47 -22 -90 -38 -90 -52 -518 -17 -567 13 -19 13 -25 0 -16 -14 8 -21 -92 -20 -297 0 -169 7 -308 16 -308 8 0 8 -16 -1 -35 -10 -19 -16 -109 -15 -200 2 -119 -5 -165 -23 -165 -13 0 -30 -17 -36 -38 -14 -44 -65 -62 -120 -42 -21 7 -73 7 -115 -1 -42 -7 -76 -8 -76 -1 0 6 -70 10 -155 8 -193 -4 -249 33 -237 156 5 47 -1 75 -14 72 -12 -2 -24 21 -27 51 -3 39 3 52 19 42 16 -10 15 -4 -2 17 -19 24 -20 36 -3 47 17 10 16 18 -4 31 -20 12 -21 22 -4 39 15 15 17 43 6 81 -9 32 -9 58 -1 58 9 0 9 41 2 91 -12 76 -9 89 16 80 23 -9 25 -6 8 15 -14 16 -20 94 -16 200 3 96 -2 174 -12 174 -9 0 -9 16 1 35 12 21 13 73 3 125 -11 62 -9 94 7 105 13 8 14 15 3 15 -11 0 -22 32 -24 70 -3 50 3 67 20 57 14 -9 13 -1 -3 19 -16 19 -22 34 -15 34 7 0 0 31 -16 69 -28 65 -27 69 15 78 63 13 848 5 862 -9z m1119 3 c100 -38 125 -135 161 -624 20 -260 -42 -889 -109 -1122 l-22 -76 -59 35 c-32 19 -60 48 -61 65 -10 130 -4 215 17 237 14 15 24 42 24 60 -1 24 -7 21 -20 -11 -24 -61 -43 -58 -20 3 10 26 12 55 5 63 -8 9 -5 10 7 4 24 -14 27 761 2 800 -8 14 -7 25 3 25 41 0 15 346 -34 438 -59 112 -20 151 106 103z m772 -1131 c0 -167 -8 -270 -20 -270 -45 0 -103 83 -92 131 7 25 3 52 -7 58 -11 7 -13 32 -4 57 8 24 13 82 11 129 -1 47 5 85 16 85 10 0 13 8 7 19 -11 17 40 59 74 60 8 1 15 -120 15 -269z m-3133 -1580 c13 -34 -3 -90 -27 -90 -31 0 -67 60 -37 62 23 1 23 3 0 12 -23 9 -23 14 0 28 38 25 51 22 64 -12z m1651 -15 c11 -29 9 -50 -6 -60 -40 -26 -52 -16 -52 45 0 71 34 79 58 15z m-2171 -145 c-14 -38 -49 -38 -98 -1 -37 28 -34 30 35 30 58 1 72 -6 63 -29z m1653 13 c0 -139 -468 -198 -608 -76 -106 92 -103 93 268 93 187 0 340 -8 340 -17z"/> <path d="M1434 3707 c-6 -6 -96 -10 -199 -9 -119 2 -216 -8 -266 -26 -75 -28 -60 -29 256 -31 184 0 335 3 335 8 0 17 -115 70 -126 58z"/> <path d="M2782 3666 c-26 -20 37 -25 308 -24 234 0 325 6 293 19 -75 30 -563 34 -601 5z"/> <path d="M3660 4511 c0 -18 139 -393 158 -427 25 -44 66 48 43 96 -8 17 -13 53 -13 80 1 28 -4 55 -11 60 -8 6 -17 23 -20 38 -13 55 -157 195 -157 153z"/> <path d="M157 4324 c-21 -47 -33 -94 -27 -105 7 -10 4 -19 -6 -19 -11 0 -26 -29 -34 -65 -9 -36 -17 -69 -18 -75 -1 -5 -9 -21 -18 -34 -8 -13 -5 -29 7 -37 25 -15 22 -18 59 61 32 71 34 78 38 130 2 39 16 40 432 40 470 0 524 13 496 120 -16 59 -5 58 -473 64 l-417 6 -39 -86z"/> <path d="M5488 3772 c-78 -78 -79 -90 -39 -391 37 -281 128 -371 260 -256 55 47 73 125 102 430 l13 145 -70 70 c-94 94 -173 95 -266 2z"/> <path d="M5540 2904 c0 -86 7 -122 22 -113 13 8 17 40 9 80 -11 58 -8 64 26 55 52 -13 127 29 119 68 -4 22 -31 32 -91 34 l-85 2 0 -126z"/> <path d="M5168 2825 c-12 -8 -33 -36 -46 -61 -20 -38 -36 -44 -81 -34 -31 7 -81 6 -112 -2 l-56 -14 46 -37 c52 -42 103 -47 135 -15 44 44 66 -5 66 -142 0 -137 -22 -186 -66 -142 -31 31 -77 27 -133 -12 l-49 -34 57 -15 c31 -8 82 -10 113 -4 48 10 60 4 76 -39 36 -93 182 -77 182 19 0 19 30 27 101 27 l101 0 -4 -308 c-4 -364 -9 -352 149 -352 174 0 173 -2 173 354 l0 307 45 -12 c92 -23 125 32 125 206 0 235 8 230 -374 222 -220 -5 -316 0 -316 15 0 53 -89 102 -132 73z m229 -185 c12 0 24 -11 25 -25 1 -19 4 -19 12 1 7 20 16 20 38 2 21 -17 28 -17 28 1 0 13 9 18 20 11 11 -7 48 7 81 31 91 65 119 30 119 -153 0 -210 -115 -274 -256 -142 -45 42 -49 42 -105 10 l-59 -34 0 182 c0 175 1 181 37 149 20 -18 47 -33 60 -33z m323 -618 c0 -40 -59 -68 -90 -42 -46 39 -36 60 30 60 33 0 60 -8 60 -18z"/> <path d="M56 1679 c-12 -37 39 -207 65 -216 10 -3 15 -14 9 -22 -5 -9 4 -55 21 -104 l30 -87 434 6 c441 7 485 15 485 88 0 72 -72 90 -334 80 -144 -5 -337 -3 -430 5 l-169 14 -25 97 c-29 114 -71 182 -86 139z"/> <path d="M3754 1414 c-111 -291 -115 -323 -24 -224 107 118 110 123 110 184 0 31 8 67 17 81 19 30 6 145 -17 145 -8 0 -47 -84 -86 -186z"/> <path d="M221 1155 c11 -36 19 -66 19 -68 0 -21 72 -67 103 -67 56 0 30 74 -51 144 -81 71 -93 69 -71 -9z"/> </g> </svg> 